<svg width="64" height="64" viewBox="0 0 64 64" fill="none" xmlns="http://www.w3.org/2000/svg">
<mask id="mask0_5282_3383" style="mask-type:alpha" maskUnits="userSpaceOnUse" x="0" y="0" width="64" height="64">
<rect width="64" height="64" fill="#D9D9D9"/>
</mask>
<g mask="url(#mask0_5282_3383)">
<path d="M13.9145 49.8313C12.5531 48.386 11.9238 46.6553 12.0265 44.6393H5.71914L6.45714 41.2887H13.2198C13.7905 40.2918 14.5862 39.4916 15.6071 38.888C16.6276 38.2844 17.7611 37.9827 19.0078 37.9827C20.2545 37.9827 21.388 38.2844 22.4085 38.888C23.4289 39.4916 24.2305 40.2918 24.8131 41.2887H37.5378L43.5191 15.3507H19.0025L19.7271 12H47.7151L45.3305 22.3247H52.2725L59.6898 32.2253L57.2298 44.6393H53.0245C53.1271 46.6553 52.4934 48.386 51.1231 49.8313C49.7529 51.2771 48.0507 52 46.0165 52C43.9823 52 42.2845 51.2771 40.9231 49.8313C39.5618 48.386 38.9325 46.6553 39.0351 44.6393H26.0165C26.1187 46.6553 25.4847 48.386 24.1145 49.8313C22.7442 51.2771 21.042 52 19.0078 52C16.9736 52 15.2758 51.2771 13.9145 49.8313ZM42.3151 35.3247H55.6725L56.0965 33.0413L50.5971 25.6753H44.5391L42.3151 35.3247ZM43.5191 15.3507L37.5378 41.2887L38.1258 38.7727L43.5191 15.3507ZM10.3325 34.1333V26.692H5.1618L12.9478 14.2533V21.6667H18.1185L10.3325 34.1333ZM19.0078 48.6493C20.03 48.6493 20.8954 48.2878 21.6038 47.5647C22.3118 46.8416 22.6658 45.9838 22.6658 44.9913C22.6658 43.9691 22.3118 43.1038 21.6038 42.3953C20.8954 41.6873 20.03 41.3333 19.0078 41.3333C18.0154 41.3333 17.1576 41.6873 16.4345 42.3953C15.7114 43.1038 15.3498 43.9691 15.3498 44.9913C15.3498 45.9838 15.7114 46.8416 16.4345 47.5647C17.1576 48.2878 18.0154 48.6493 19.0078 48.6493ZM46.0165 48.6493C47.0387 48.6493 47.9038 48.2878 48.6118 47.5647C49.3202 46.8416 49.6745 45.9838 49.6745 44.9913C49.6745 43.9691 49.3202 43.1038 48.6118 42.3953C47.9038 41.6873 47.0387 41.3333 46.0165 41.3333C45.0236 41.3333 44.1656 41.6873 43.4425 42.3953C42.7194 43.1038 42.3578 43.9691 42.3578 44.9913C42.3578 45.9838 42.7194 46.8416 43.4425 47.5647C44.1656 48.2878 45.0236 48.6493 46.0165 48.6493Z" fill="black"/>
</g>
</svg>
