<svg width="141" height="38" viewBox="0 0 141 38" fill="none" xmlns="http://www.w3.org/2000/svg">
<path d="M138.881 2.03768C139.221 2.03768 139.564 2.03768 139.564 1.64942C139.564 1.31899 139.281 1.26116 139.051 1.26116H138.481V2.03493H138.881V2.03768ZM138.54 3.36493H138.2V0.985797H139.167C139.737 0.985797 139.964 1.20609 139.964 1.64942C139.964 2.09275 139.681 2.25797 139.394 2.31304L140.078 3.36217H139.678L138.994 2.31304H138.537V3.36217L138.54 3.36493ZM140.705 2.2029C140.705 1.20884 139.964 0.490145 138.94 0.490145C137.973 0.490145 137.175 1.26391 137.175 2.2029C137.175 3.19696 137.916 3.91565 138.94 3.91565C139.964 3.91565 140.705 3.14188 140.705 2.2029ZM141 2.2029C141 3.30985 140.089 4.19377 138.949 4.19377C137.808 4.19377 136.897 3.30985 136.897 2.2029C136.897 1.09594 137.808 0.212029 138.949 0.212029C140.089 0.212029 141 1.09594 141 2.2029ZM119.026 0V9.36232H106.755V38H94.697V9.36232H82.1424V0H119.026ZM123.353 0H135.411V38H123.353V0ZM42.5692 0L36.0948 9.36232L27.3846 21.9574V38H15.1847V21.9574L6.47447 9.36232L0 0H13.3518L19.1312 9.36232L21.2846 12.8512L23.4381 9.36232L29.2174 0H42.5692ZM78.1703 28.6377V38H45.4008V14.8696H45.3298V0H77.6029V9.36232H57.3879V14.8696H75.1487V23.4058H57.317V28.6377H78.1703Z" fill="white"/>
</svg>
